<svg width="32" height="32" viewBox="0 0 32 32" fill="none" xmlns="http://www.w3.org/2000/svg">
  <defs>
    <!-- 更深的背景，增强对比 -->
    <linearGradient id="bg-gradient" x1="0%" y1="0%" x2="100%" y2="100%">
      <stop offset="0%" style="stop-color:#0a0a0f;stop-opacity:1" />
      <stop offset="100%" style="stop-color:#12121a;stop-opacity:1" />
    </linearGradient>
    <!-- 更亮的主题渐变，从白色开始 -->
    <linearGradient id="light-gradient" x1="0%" y1="0%" x2="100%" y2="100%">
      <stop offset="0%" style="stop-color:#60a5fa;stop-opacity:1" />
      <stop offset="50%" style="stop-color:#a78bfa;stop-opacity:1" />
      <stop offset="100%" style="stop-color:#f472b6;stop-opacity:1" />
    </linearGradient>
    <!-- 白色到蓝色的灯塔核心渐变 -->
    <radialGradient id="core-gradient" cx="50%" cy="50%" r="50%">
      <stop offset="0%" style="stop-color:#ffffff;stop-opacity:1" />
      <stop offset="50%" style="stop-color:#60a5fa;stop-opacity:1" />
      <stop offset="100%" style="stop-color:#3b82f6;stop-opacity:1" />
    </radialGradient>
    <!-- 强烈的发光效果 -->
    <radialGradient id="glow" cx="50%" cy="50%" r="50%">
      <stop offset="0%" style="stop-color:#60a5fa;stop-opacity:1" />
      <stop offset="100%" style="stop-color:#3b82f6;stop-opacity:0" />
    </radialGradient>
  </defs>

  <!-- 深黑色圆形背景 -->
  <circle cx="16" cy="16" r="16" fill="url(#bg-gradient)"/>

  <!-- 港湾底座（更亮） -->
  <path d="M 6 24 Q 16 20 26 24" stroke="url(#light-gradient)" stroke-width="2.5" fill="none" stroke-linecap="round"/>
  <path d="M 7 26 Q 16 22.5 25 26" stroke="url(#light-gradient)" stroke-width="2" fill="none" stroke-linecap="round" opacity="0.7"/>

  <!-- 强烈发光层 -->
  <circle cx="16" cy="11" r="9" fill="url(#glow)" opacity="0.6"/>

  <!-- 中心灯塔核心（白色中心） -->
  <circle cx="16" cy="11" r="6" fill="url(#core-gradient)"/>

  <!-- 外圈高光 -->
  <circle cx="16" cy="11" r="5.5" fill="none" stroke="#ffffff" stroke-width="0.5" opacity="0.8"/>

  <!-- 光束扩散（更亮） -->
  <path d="M 16 11 L 13 22 L 16 20 L 19 22 Z" fill="url(#light-gradient)" opacity="0.8"/>

  <!-- 时光碎片（更亮更饱和） -->
  <circle cx="9" cy="10" r="1.8" fill="#a78bfa" opacity="1"/>
  <circle cx="23" cy="10" r="1.8" fill="#f472b6" opacity="1"/>
  <circle cx="7" cy="16" r="1.4" fill="#60a5fa" opacity="0.9"/>
  <circle cx="25" cy="16" r="1.4" fill="#f472b6" opacity="0.9"/>

  <!-- 光芒线条（更亮更粗） -->
  <path d="M 16 5 L 16 2" stroke="#60a5fa" stroke-width="2" stroke-linecap="round" opacity="1"/>
  <path d="M 10.5 7.5 L 7.5 4.5" stroke="#a78bfa" stroke-width="1.5" stroke-linecap="round" opacity="0.9"/>
  <path d="M 21.5 7.5 L 24.5 4.5" stroke="#f472b6" stroke-width="1.5" stroke-linecap="round" opacity="0.9"/>
</svg>
